HIERARCHY
ROOT Hips
{
	OFFSET 0.000000 0.000000 0.000000
	CHANNELS 6 Xposition Yposition Zposition Zrotation Yrotation Xrotation 
	JOINT LeftUpLeg_virtual
	{
		OFFSET 0.000000 0.000000 0.000000
		CHANNELS 3 Zrotation Yrotation Xrotation
		JOINT LeftUpLeg
		{
			OFFSET 10.205400 -3.823500 0.155100
			CHANNELS 3 Zrotation Yrotation Xrotation
			JOINT LeftLeg
			{
				OFFSET 0.708757 -12.982077 0.567790
				CHANNELS 3 Zrotation Yrotation Xrotation
				JOINT LeftFoot
				{
					OFFSET -0.708756 -10.717838 -2.184338
					CHANNELS 3 Zrotation Yrotation Xrotation
					JOINT LeftToeBase
					{
						OFFSET 0.108149 -7.191104 7.560241
						CHANNELS 3 Zrotation Yrotation Xrotation
						End Site
						{
							OFFSET 0.000000 0.000000 0.000000
						}
					}
				}
			}
		}
	}
	JOINT RightUpLeg_virtual
	{
		OFFSET 0.000000 0.000000 0.000000
		CHANNELS 3 Zrotation Yrotation Xrotation
		JOINT RightUpLeg
		{
			OFFSET -10.205400 -3.823500 0.005500
			CHANNELS 3 Zrotation Yrotation Xrotation
			JOINT RightLeg
			{
				OFFSET -0.708756 -12.982134 0.610632
				CHANNELS 3 Zrotation Yrotation Xrotation
				JOINT RightFoot
				{
					OFFSET 0.708754 -10.717769 -1.945823
					CHANNELS 3 Zrotation Yrotation Xrotation
					JOINT RightToeBase
					{
						OFFSET -0.108140 -7.191069 7.372968
						CHANNELS 3 Zrotation Yrotation Xrotation
						End Site
						{
							OFFSET 0.000000 0.000000 0.000000
						}
					}
				}
			}
		}
	}
	JOINT Spine_virtual
	{
		OFFSET 0.000000 0.000000 0.000000
		CHANNELS 3 Zrotation Yrotation Xrotation
		JOINT Spine
		{
			OFFSET 0.000000 6.876099 0.125700
			CHANNELS 3 Zrotation Yrotation Xrotation
			JOINT Spine1
			{
				OFFSET 0.000000 8.022060 0.146608
				CHANNELS 3 Zrotation Yrotation Xrotation
				JOINT Spine2
				{
					OFFSET 0.000000 9.168068 0.167552
					CHANNELS 3 Zrotation Yrotation Xrotation
					JOINT Neck_virtual
					{
						OFFSET 0.000000 0.000000 0.000000
						CHANNELS 3 Zrotation Yrotation Xrotation
						JOINT Neck
						{
							OFFSET 0.000000 10.314075 0.188496
							CHANNELS 3 Zrotation Yrotation Xrotation
							JOINT Head
							{
								OFFSET 0.000000 7.643700 -2.377400
								CHANNELS 3 Zrotation Yrotation Xrotation
								End Site
								{
									OFFSET 0.000000 0.000000 0.000000
								}
							}
						}
					}
					JOINT LeftShoulder_virtual
					{
						OFFSET 0.000000 0.000000 0.000000
						CHANNELS 3 Zrotation Yrotation Xrotation
						JOINT LeftShoulder
						{
							OFFSET 4.392200 8.824978 0.174984
							CHANNELS 3 Zrotation Yrotation Xrotation
							JOINT LeftArm
							{
								OFFSET 8.771219 -2.981674 -0.026999
								CHANNELS 3 Zrotation Yrotation Xrotation
								JOINT LeftForeArm
								{
									OFFSET 8.512804 0.000000 -0.000000
									CHANNELS 3 Zrotation Yrotation Xrotation
									JOINT LeftHand
									{
										OFFSET 18.484802 0.000000 -0.000000
										CHANNELS 3 Zrotation Yrotation Xrotation
										End Site
										{
											OFFSET 0.000000 0.000000 0.000000
										}
									}
								}
							}
						}
					}
					JOINT RightShoulder_virtual
					{
						OFFSET 0.000000 0.000000 0.000000
						CHANNELS 3 Zrotation Yrotation Xrotation
						JOINT RightShoulder
						{
							OFFSET -4.392200 8.824993 0.141379
							CHANNELS 3 Zrotation Yrotation Xrotation
							JOINT RightArm
							{
								OFFSET -8.771282 -2.981682 -0.094208
								CHANNELS 3 Zrotation Yrotation Xrotation
								JOINT RightForeArm
								{
									OFFSET -8.494598 0.000000 0.000000
									CHANNELS 3 Zrotation Yrotation Xrotation
									JOINT RightHand
									{
										OFFSET -18.483803 0.000000 0.000001
										CHANNELS 3 Zrotation Yrotation Xrotation
										End Site
										{
											OFFSET 0.000000 0.000000 0.000000
										}
									}
								}
							}
						}
					}
				}
			}
		}
	}
}
MOTION
Frames: 9
Frame Time: 0.033333
5.246611 34.760971 -32.553867 179.103024 -54.206639 -179.146655 -0.471778 -5.678495 10.932337 3.048760 -8.434795 -34.685794 6.206323 -2.188599 24.660195 -11.919861 -1.816086 7.753094 0.000000 0.000000 0.000000 3.665821 -3.571539 9.897596 2.525976 11.171466 -26.199122 -2.003503 6.197247 26.344374 12.944131 5.828270 7.364614 0.000000 0.000000 0.000000 1.463849 -1.357543 -7.958793 -0.845256 3.130988 -10.059661 -2.773714 -1.675154 14.328815 -0.028992 0.098086 0.057448 -3.073600 0.448210 16.724171 -16.861285 8.993354 15.292956 0.000000 0.000000 0.000000 -1.398090 0.667783 13.565122 -4.540232 -9.826013 6.637386 -47.245945 4.446784 31.390340 -165.582022 -79.189063 -174.794076 0.000000 0.000000 0.000000 -5.498022 2.497562 12.936191 27.601573 13.853259 5.869362 46.743578 -30.979054 18.746359 -165.570643 75.379757 -165.617211 0.000000 0.000000 0.000000 
5.995971 34.707184 -32.842533 179.063709 -58.540418 -178.936695 -0.496880 -5.900350 10.469445 3.865649 -7.089871 -35.164184 5.238656 -1.517743 23.018323 -12.482943 -1.773582 8.249260 0.000000 0.000000 0.000000 3.603785 -4.103443 9.702736 4.503959 8.980445 -25.641280 -2.208211 4.872268 25.336604 12.066494 5.632535 7.646398 0.000000 0.000000 0.000000 1.522145 -1.699668 -7.616608 -0.557884 3.403534 -9.713916 -2.891404 -1.563500 14.556807 0.037464 0.078676 0.036972 -3.053056 0.460080 16.742252 -16.883318 8.754155 15.524523 0.000000 0.000000 0.000000 -1.277542 0.680214 13.485724 -4.366465 -10.585603 7.013420 -46.306316 3.704257 31.475192 -164.813216 -79.405635 -175.979974 0.000000 0.000000 0.000000 -5.450398 2.594888 12.860074 28.421097 13.772049 6.113713 46.155277 -31.043353 18.531743 -166.072088 75.405657 -166.231751 0.000000 0.000000 0.000000 
6.712690 34.650723 -32.994724 179.185300 -63.248399 -178.992839 -0.638862 -5.836642 10.485642 4.588846 -4.936463 -35.840400 4.808642 -0.893101 22.205872 -12.398030 -1.118256 8.368749 0.000000 0.000000 0.000000 3.610937 -4.277594 9.736863 5.935308 6.927691 -25.449905 -2.529385 2.899836 24.817130 11.069035 5.442789 7.393316 0.000000 0.000000 0.000000 1.497951 -1.735385 -7.156662 -0.067974 3.535787 -9.176041 -2.857035 -1.616182 14.562377 -0.007693 0.016483 0.033413 -2.915398 0.521097 16.767887 -16.832895 8.652867 15.690307 0.000000 0.000000 0.000000 -1.188577 0.614255 13.494064 -4.219994 -11.238960 7.333122 -45.698351 3.127358 31.423631 -164.346127 -79.417362 -176.817041 0.000000 0.000000 0.000000 -5.373490 2.642677 12.800995 29.203198 13.848291 6.498485 45.608342 -30.967012 18.329181 -166.064657 75.308109 -166.327004 0.000000 0.000000 0.000000 
7.373211 34.626881 -33.083855 179.160056 -67.791164 -178.891889 -0.518885 -5.454601 10.719928 5.091117 -2.740350 -36.290229 4.481256 -0.685587 21.165604 -12.325952 -0.270827 8.417938 0.000000 0.000000 0.000000 3.703012 -3.983608 9.877341 6.867416 5.006580 -25.712136 -2.730062 1.539828 24.449985 9.891249 5.067958 7.108320 0.000000 0.000000 0.000000 1.393927 -1.427012 -6.702056 0.521328 3.561392 -8.805945 -2.787431 -1.721768 14.660823 0.035024 0.147008 0.065484 -2.873919 0.430035 16.663293 -16.784387 8.496430 15.662375 0.000000 0.000000 0.000000 -1.151450 0.575183 13.391352 -4.208658 -11.861587 7.701798 -45.278396 2.690256 31.147131 -163.537692 -79.333897 -177.933313 0.000000 0.000000 0.000000 -5.409032 2.604836 12.648238 29.852940 13.970788 6.879714 45.330009 -30.882892 18.034032 -166.450508 75.099064 -166.826401 0.000000 0.000000 0.000000 
7.950034 34.643673 -33.153690 179.011608 -72.218773 -179.027168 -0.534158 -4.906626 10.836848 5.319180 -0.239098 -36.703265 4.917183 0.171645 20.377434 -11.668728 1.160250 9.036795 0.000000 0.000000 0.000000 3.700469 -3.653960 10.174300 7.485954 3.145455 -25.975845 -2.713871 0.798298 24.458101 8.695564 4.588387 6.849052 0.000000 0.000000 0.000000 1.262041 -1.039551 -5.964783 1.228703 3.622965 -8.395719 -2.657404 -1.795839 14.840804 0.022064 0.082865 0.012204 -2.856964 0.259971 16.572185 -16.969327 8.188441 15.636974 0.000000 0.000000 0.000000 -1.040074 0.504938 13.270716 -4.300179 -12.263103 7.953856 -45.364184 2.781576 30.719315 -162.640150 -79.184330 -179.075402 0.000000 0.000000 0.000000 -5.329443 2.482999 12.522028 30.120147 14.172984 7.147317 45.056709 -30.913464 17.852590 -166.987361 74.830911 -167.476375 0.000000 0.000000 0.000000 
8.436481 34.723782 -33.177124 178.869732 -76.585982 -178.984288 -1.129096 -4.274685 10.429125 4.913782 2.384675 -37.891899 6.375841 2.840484 19.675250 -9.783992 3.532211 10.723027 0.000000 0.000000 0.000000 3.934207 -3.616703 10.342416 7.859311 1.440837 -26.111793 -2.523697 0.549208 24.045633 7.559156 4.072072 6.745496 0.000000 0.000000 0.000000 1.277838 -0.858073 -5.292746 1.957278 3.641112 -8.088983 -2.609483 -1.928961 14.841967 -0.018253 0.062329 0.055902 -2.813203 0.142862 16.542363 -16.951969 7.975937 15.691531 0.000000 0.000000 0.000000 -0.957494 0.374545 13.320107 -4.465964 -12.569228 8.138355 -45.616955 3.126238 30.076810 -162.458399 -79.209219 -179.407978 0.000000 0.000000 0.000000 -5.377175 2.450555 12.453013 30.303500 14.440304 7.428282 45.079471 -31.005739 17.467210 -166.764492 74.705488 -167.406543 0.000000 0.000000 0.000000 
8.870659 34.845898 -33.131229 177.442550 -80.508539 -177.592841 -1.310569 -4.016009 10.322333 3.332583 4.496749 -39.123658 7.097759 6.439642 17.111948 -7.960452 5.781668 13.111423 0.000000 0.000000 0.000000 4.112414 -3.912735 10.322968 7.892258 -0.235345 -26.280802 -2.352583 0.480516 23.616974 6.668565 3.620714 6.981839 0.000000 0.000000 0.000000 1.187963 -0.837446 -4.604054 2.706453 3.797094 -7.863206 -2.561099 -1.965743 14.868487 -0.060301 0.081768 0.036765 -2.744700 0.065455 16.472422 -16.824773 7.940731 15.617622 0.000000 0.000000 0.000000 -0.950157 0.301095 13.260359 -4.499574 -12.846730 8.225910 -46.328408 3.676194 29.222558 -160.882019 -79.255739 178.950669 0.000000 0.000000 0.000000 -5.397034 2.288805 12.401888 30.264380 14.713214 7.693081 45.227911 -31.075667 17.245673 -165.753542 74.713684 -166.560829 0.000000 0.000000 0.000000 
9.278399 34.979340 -33.000664 176.303247 -83.979006 -176.411765 -1.419358 -4.054758 10.408322 1.590519 6.558208 -40.202620 6.683698 9.526787 14.551395 -6.436961 7.522120 15.200547 0.000000 0.000000 0.000000 4.391617 -4.277117 10.200082 7.763448 -1.841863 -26.457583 -2.196999 0.429106 23.102948 5.874621 3.186296 7.485452 0.000000 0.000000 0.000000 1.604265 -0.997800 -4.006252 3.159230 3.972565 -7.685251 -2.672789 -1.918061 14.851572 0.017139 0.120234 0.038713 -2.725997 0.087125 16.376907 -16.716587 7.538643 15.694706 0.000000 0.000000 0.000000 -0.989187 0.317314 13.110305 -4.592566 -12.951329 8.350551 -47.229921 4.227646 28.291103 -159.596604 -79.572489 177.679885 0.000000 0.000000 0.000000 -5.488058 2.341507 12.341568 29.890813 15.174618 7.895619 45.605948 -31.051334 17.246340 -164.685710 74.785244 -165.688382 0.000000 0.000000 0.000000 
9.686104 35.102940 -32.829346 170.300426 -87.408595 -170.388549 -1.383530 -4.028297 10.552644 0.167392 7.727743 -41.097194 6.552262 11.677539 13.841840 -5.182542 8.700314 16.404945 0.000000 0.000000 0.000000 4.597577 -4.696306 10.154487 7.519871 -3.258680 -26.720175 -2.032088 0.338353 22.621928 5.120185 2.787565 7.857761 0.000000 0.000000 0.000000 1.847564 -1.166791 -3.458871 3.567561 4.046086 -7.650903 -2.737841 -1.924067 14.839976 -0.001576 0.095602 0.032887 -2.892598 0.127998 16.259504 -16.739329 7.138854 15.706725 0.000000 0.000000 0.000000 -0.986367 0.346880 13.016854 -4.416668 -13.109180 8.490072 -48.236141 4.682555 27.419537 -158.378604 -79.882109 176.542741 0.000000 0.000000 0.000000 -5.516692 2.346472 12.155032 29.510502 15.690644 8.085933 46.244124 -30.959813 17.275965 -163.271738 74.885771 -164.474944 0.000000 0.000000 0.000000 
